<svg width="40" height="40" viewBox="0 0 40 40" fill="none" xmlns="http://www.w3.org/2000/svg">
  <!-- Window frame -->
  <rect x="4" y="4" width="32" height="32" rx="5" fill="#2B2D30" stroke="#CED0D6" stroke-width="1.4"/>

  <!-- Sidebar -->
  <rect x="5.5" y="5.5" width="12" height="29" rx="2" fill="#1E1F22"/>

  <!-- Tree structure -->
  <g stroke="#CED0D6" stroke-width="1.25" stroke-linecap="round" stroke-linejoin="round">
    <!-- Folder 1 -->
    <path d="M8 11.5h7"/>
    <!-- Folder 2 (open) -->
    <path d="M8 16h7"/>
    <path d="M9.5 16v3.5"/>
    <path d="M8 20h5.5"/>
  </g>

  <!-- Selected file -->
  <rect x="7" y="23.5" width="9" height="5.5" rx="1.2" fill="#548AF7"/>
  <path d="M9 26.2h5" stroke="#1E1F22" stroke-width="1.3" stroke-linecap="round"/>

  <!-- Last item -->
  <path d="M8 31.5h6" stroke="#CED0D6" stroke-width="1.25" stroke-linecap="round"/>

  <!-- Editor panel -->
  <rect x="18.5" y="5.5" width="16" height="29" rx="2" fill="#2B2D30"/>

  <!-- Code lines -->
  <g stroke="#CED0D6" stroke-width="1.25" stroke-linecap="round">
    <path d="M21 11.5h11"/>
    <path d="M21 16h8.5"/>
    <path d="M21 20h10"/>
  </g>

  <!-- Active line -->
  <rect x="20" y="23.5" width="13" height="5.5" rx="1.2" fill="#25324D"/>
  <path d="M21 26.2h11" stroke="#548AF7" stroke-width="1.45" stroke-linecap="round"/>

  <!-- Bottom code line -->
  <path d="M21 31.5h9" stroke="#CED0D6" stroke-width="1.25" stroke-linecap="round"/>

  <!-- Connection -->
  <path d="M17.5 26.2h1.3" stroke="#548AF7" stroke-width="1.4" stroke-linecap="round"/>
</svg>
